<?xml version="1.0" encoding="iso-8859-1"?>
<!-- Generator: Adobe Illustrator 19.0.0, SVG Export Plug-In . SVG Version: 6.00 Build 0)  -->
<svg version="1.1" id="Capa_1" xmlns="http://www.w3.org/2000/svg" xmlns:xlink="http://www.w3.org/1999/xlink" x="0px" y="0px"
	 viewBox="0 0 512 512" style="enable-background:new 0 0 512 512;" xml:space="preserve">
<path style="fill:#0050B2;" d="M257,0C116.3,0,0,114.3,0,255s116.3,257,257,257s255-116.3,255-257S397.7,0,257,0z"/>
<path style="fill:#003A92;" d="M512,255c0,140.7-114.3,257-255,257V0C397.7,0,512,114.3,512,255z"/>
<path style="fill:#1DE8F1;" d="M452,255c0,51.899-20.4,103.1-57.299,139.699c-5.402,5.7-15.3,5.7-21,0L352.4,373.7
	c-14.099-14.101,7.2-35.101,21.301-21.301l10.199,10.199c21.301-25.8,33.9-59.299,36.901-92.599H407c-8.401,0-15-6.601-15-15
	c0-8.401,6.599-15,15-15h14.099C414.2,161.1,350.9,97.8,272,90.899V105c0,8.399-6.599,15-15,15s-15-6.601-15-15V90.899
	c-34.2,3.001-67.4,16.5-92.601,37.5L159.6,138.3c5.7,6,5.7,15.3,0,21.301c-6,5.999-15.3,5.999-21.301,0L128.4,149.4
	c-21,25.201-34.501,56.4-37.5,90.601H105c8.401,0,15,6.599,15,15c0,8.399-6.599,15-15,15H91.199
	C94.2,303.301,106.8,336.8,128.1,362.6l10.2-10.2c6-6,15.3-5.7,21.301,0c5.7,6,5.7,15.3,0,21.301L138.3,394.999
	c-5.7,5.7-15.3,5.7-21.299,0C80.4,358.1,60,307.2,60,255c0-107.701,89.9-195,197-195C364.401,60,452,147.599,452,255z"/>
<path style="fill:#1BD9DE;" d="M452,255c0,51.899-20.4,103.1-57.299,139.699c-5.402,5.7-15.3,5.7-21,0L352.4,373.7
	c-14.099-14.101,7.2-35.101,21.301-21.301l10.199,10.199c21.301-25.8,33.9-59.299,36.901-92.599H407c-8.401,0-15-6.601-15-15
	c0-8.401,6.599-15,15-15h14.099C414.2,161.1,350.9,97.8,272,90.899V105c0,8.399-6.599,15-15,15V60C364.401,60,452,147.599,452,255z"
	/>
<path style="fill:#E1E4FB;" d="M287,362h-60c-24.901,0-47,20.099-47,45c0,24.899,22.099,45,47,45h60c24.901,0,45-20.101,45-45
	C332,382.099,311.901,362,287,362z"/>
<path style="fill:#FD003A;" d="M394.701,117.299c-5.101-5.4-13.2-6-19.2-1.8l-118.5,84.3l-26.4,18.6
	c-40.8,30.901-9.901,81.301,26.4,82.2c12.599,0.601,25.8-5.099,36.899-19.499l102.601-144.6
	C400.699,130.499,400.101,122.399,394.701,117.299z"/>
<path style="fill:#C5C9F7;" d="M332,407c0,24.899-20.099,45-45,45h-30v-90h30C311.901,362,332,382.099,332,407z"/>
<path style="fill:#D30532;" d="M396.501,136.5L293.899,281.1c-11.1,14.399-24.3,20.099-36.899,19.499v-100.8l118.5-84.3
	c6-4.2,14.099-3.6,19.2,1.8C400.101,122.399,400.699,130.499,396.501,136.5z"/>
<g>
</g>
<g>
</g>
<g>
</g>
<g>
</g>
<g>
</g>
<g>
</g>
<g>
</g>
<g>
</g>
<g>
</g>
<g>
</g>
<g>
</g>
<g>
</g>
<g>
</g>
<g>
</g>
<g>
</g>
</svg>
