<?xml version="1.0" encoding="iso-8859-1"?>
<!-- Generator: Adobe Illustrator 19.0.0, SVG Export Plug-In . SVG Version: 6.00 Build 0)  -->
<svg version="1.1" id="Capa_1" xmlns="http://www.w3.org/2000/svg" xmlns:xlink="http://www.w3.org/1999/xlink" x="0px" y="0px"
	 viewBox="0 0 423.253 423.253" style="enable-background:new 0 0 423.253 423.253;" xml:space="preserve">
<g>
	<path style="fill:#00E7FF;" d="M361.813,416.426H201.386v-34.133h160.427c9.426,0,17.067,7.641,17.067,17.067l0,0
		C378.88,408.785,371.239,416.426,361.813,416.426z"/>
	<path style="fill:#00E7FF;" d="M361.813,423.253H201.386c-3.773,0-6.827-3.053-6.827-6.827v-34.133
		c0-3.773,3.053-6.827,6.827-6.827h160.427c13.174,0,23.893,10.72,23.893,23.893C385.706,412.533,374.987,423.253,361.813,423.253z
		 M208.213,409.599h153.6c5.647,0,10.24-4.593,10.24-10.24s-4.593-10.24-10.24-10.24h-153.6V409.599z"/>
</g>
<path style="fill:#FFFFFF;" d="M262.826,368.637v47.788H44.373V94.069c0-18.021,14.609-32.63,32.63-32.63h153.196
	c18.019,0,32.628,14.609,32.628,32.63v234.752"/>
<path style="fill:#602F75;" d="M262.826,423.253H44.373c-3.773,0-6.827-3.053-6.827-6.827V94.065
	c0-21.753,17.7-39.453,39.453-39.453H230.2c21.753,0,39.453,17.7,39.453,39.453v234.754c0,3.773-3.053,6.827-6.827,6.827
	S256,332.593,256,328.819V94.065c0-14.227-11.573-25.8-25.8-25.8H76.999c-14.227,0-25.8,11.573-25.8,25.8v315.534H256v-40.96
	c0-3.773,3.053-6.827,6.827-6.827s6.827,3.053,6.827,6.827v47.787C269.653,420.199,266.6,423.253,262.826,423.253z"/>
<polygon style="fill:#00E7FF;" points="118.708,204.799 92.16,293.546 155.269,293.546 142.373,382.292 225.204,259.412 
	150.261,259.412 181.816,204.799 "/>
<path style="fill:#EA3457;" d="M235.52,163.839c0-45.244-36.676-81.92-81.92-81.92s-81.92,36.676-81.92,81.92H235.52z"/>
<g>
	<path style="fill:#602F75;" d="M235.52,170.666H71.68c-3.773,0-6.827-3.053-6.827-6.827c0-48.934,39.813-88.747,88.747-88.747
		s88.747,39.813,88.747,88.747C242.346,167.613,239.293,170.666,235.52,170.666z M78.813,157.012h149.574
		c-3.459-38.221-35.68-68.267-74.786-68.267S82.273,118.792,78.813,157.012z"/>
	<path style="fill:#602F75;" d="M153.6,184.319c-3.773,0-6.827-3.053-6.827-6.827v-68.267c0-3.773,3.053-6.827,6.827-6.827
		s6.827,3.053,6.827,6.827v68.267C160.426,181.266,157.373,184.319,153.6,184.319z"/>
	<path style="fill:#602F75;" d="M180.906,122.879c-1.746,0-3.494-0.667-4.826-2c-2.666-2.666-2.666-6.987,0-9.653l13.653-13.653
		c2.666-2.666,6.987-2.666,9.653,0c2.666,2.666,2.666,6.987,0,9.653l-13.653,13.653C184.4,122.212,182.652,122.879,180.906,122.879z
		"/>
	<path style="fill:#602F75;" d="M126.293,122.879c-1.746,0-3.494-0.667-4.826-2l-13.653-13.653c-2.666-2.666-2.666-6.987,0-9.653
		c2.666-2.666,6.987-2.666,9.653,0l13.653,13.653c2.666,2.666,2.666,6.987,0,9.653C129.786,122.212,128.039,122.879,126.293,122.879
		z"/>
</g>
<path style="fill:#602F75;" d="M105.82,143.359c-0.546,0-1.106-0.067-1.661-0.207l-25.341-6.333
	c-3.661-0.913-5.886-4.62-4.966-8.274c0.906-3.666,4.62-5.893,8.274-4.966l25.341,6.333c3.661,0.913,5.886,4.62,4.966,8.274
	C111.66,141.292,108.88,143.359,105.82,143.359z"/>
<g>
	<path style="fill:#602F75;" d="M201.379,143.359c-3.06,0-5.84-2.067-6.613-5.173c-0.92-3.654,1.307-7.359,4.966-8.274l23.82-5.953
		c3.654-0.927,7.359,1.307,8.274,4.966c0.92,3.654-1.307,7.359-4.966,8.274l-23.82,5.953
		C202.487,143.293,201.926,143.359,201.379,143.359z"/>
	<path style="fill:#602F75;" d="M337.213,368.639h-19.067c-15.447,0-28.013-12.566-28.013-28.013V172.058
		c0-7.921-6.439-14.367-14.36-14.367h-12.947c-3.773,0-6.827-3.053-6.827-6.827s3.053-6.827,6.827-6.827h12.947
		c15.447,0,28.013,12.566,28.013,28.02v168.567c0,7.921,6.439,14.36,14.36,14.36h19.067c7.921,0,14.36-6.439,14.36-14.36V136.532
		c0-3.773,3.053-6.827,6.827-6.827s6.827,3.053,6.827,6.827v204.093C365.226,356.073,352.66,368.639,337.213,368.639z"/>
</g>
<rect x="344.746" y="61.439" style="fill:#FFE600;" width="27.307" height="75.093"/>
<g>
	<path style="fill:#602F75;" d="M372.053,143.359h-27.307c-3.773,0-6.827-3.053-6.827-6.827V61.439c0-3.773,3.053-6.827,6.827-6.827
		h27.307c3.773,0,6.827,3.053,6.827,6.827v75.093C378.88,140.306,375.826,143.359,372.053,143.359z M351.573,129.706h13.653v-61.44
		h-13.653V129.706z"/>
	<path style="fill:#602F75;" d="M357.266,67.126c-0.067,0-0.133,0-0.2,0c-3.773-0.113-6.74-3.253-6.634-7.02l1.14-39.82
		c0.053-1.746,0.766-3.4,2-4.634l13.653-13.653c2.666-2.666,6.987-2.666,9.653,0s2.666,6.987,0,9.653l-11.733,11.733l-1.06,37.106
		C363.98,64.199,360.939,67.126,357.266,67.126z"/>
</g>
<g>
</g>
<g>
</g>
<g>
</g>
<g>
</g>
<g>
</g>
<g>
</g>
<g>
</g>
<g>
</g>
<g>
</g>
<g>
</g>
<g>
</g>
<g>
</g>
<g>
</g>
<g>
</g>
<g>
</g>
</svg>
